<?xml version="1.0" encoding="UTF-8" standalone="no"?><svg xmlns="http://www.w3.org/2000/svg" xmlns:xlink="http://www.w3.org/1999/xlink" contentScriptType="application/ecmascript" contentStyleType="text/css" height="353px" preserveAspectRatio="none" style="width:411px;height:353px;" version="1.1" viewBox="0 0 411 353" width="411px" zoomAndPan="magnify"><defs><filter height="300%" id="fpphln2cef5cz" width="300%" x="-1" y="-1"><feGaussianBlur result="blurOut" stdDeviation="2.0"/><feColorMatrix in="blurOut" result="blurOut2" type="matrix" values="0 0 0 0 0 0 0 0 0 0 0 0 0 0 0 0 0 0 .4 0"/><feOffset dx="4.0" dy="4.0" in="blurOut2" result="blurOut3"/><feBlend in="SourceGraphic" in2="blurOut3" mode="normal"/></filter></defs><g><!--cluster dev--><polygon fill="#FFFFFF" filter="url(#fpphln2cef5cz)" points="22,34,32,24,208,24,208,106,198,116,22,116,22,34" style="stroke: #000000; stroke-width: 2.0;"/><line style="stroke: #000000; stroke-width: 2.0;" x1="198" x2="207" y1="34" y2="25"/><line style="stroke: #000000; stroke-width: 2.0;" x1="22" x2="198" y1="34" y2="34"/><line style="stroke: #000000; stroke-width: 2.0;" x1="198" x2="198" y1="34" y2="116"/><text fill="#000000" font-family="sans-serif" font-size="14" font-weight="bold" lengthAdjust="spacingAndGlyphs" textLength="29" x="96.5" y="49.9951">dev</text><!--cluster atlas compile--><polygon fill="#FFFFFF" filter="url(#fpphln2cef5cz)" points="60,150,70,140,340,140,340,222,330,232,60,232,60,150" style="stroke: #000000; stroke-width: 2.0;"/><line style="stroke: #000000; stroke-width: 2.0;" x1="330" x2="339" y1="150" y2="141"/><line style="stroke: #000000; stroke-width: 2.0;" x1="60" x2="330" y1="150" y2="150"/><line style="stroke: #000000; stroke-width: 2.0;" x1="330" x2="330" y1="150" y2="232"/><text fill="#000000" font-family="sans-serif" font-size="14" font-weight="bold" lengthAdjust="spacingAndGlyphs" textLength="103" x="144.5" y="165.9951">atlas compile</text><!--cluster runtime--><polygon fill="#FFFFFF" filter="url(#fpphln2cef5cz)" points="196,266,206,256,406,256,406,338,396,348,196,348,196,266" style="stroke: #000000; stroke-width: 2.0;"/><line style="stroke: #000000; stroke-width: 2.0;" x1="396" x2="405" y1="266" y2="257"/><line style="stroke: #000000; stroke-width: 2.0;" x1="196" x2="396" y1="266" y2="266"/><line style="stroke: #000000; stroke-width: 2.0;" x1="396" x2="396" y1="266" y2="348"/><text fill="#000000" font-family="sans-serif" font-size="14" font-weight="bold" lengthAdjust="spacingAndGlyphs" textLength="61" x="266.5" y="281.9951">runtime</text><!--entity code--><rect fill="#FEFECE" filter="url(#fpphln2cef5cz)" height="36.2969" style="stroke: #A80036; stroke-width: 1.5;" width="55" x="38.5" y="64"/><rect fill="#FEFECE" height="5" style="stroke: #A80036; stroke-width: 1.5;" width="10" x="33.5" y="69"/><rect fill="#FEFECE" height="5" style="stroke: #A80036; stroke-width: 1.5;" width="10" x="33.5" y="90.2969"/><text fill="#000000" font-family="sans-serif" font-size="14" lengthAdjust="spacingAndGlyphs" textLength="35" x="48.5" y="86.9951">code</text><!--entity gradle--><rect fill="#FEFECE" filter="url(#fpphln2cef5cz)" height="36.2969" style="stroke: #A80036; stroke-width: 1.5;" width="63" x="128.5" y="64"/><rect fill="#FEFECE" height="5" style="stroke: #A80036; stroke-width: 1.5;" width="10" x="123.5" y="69"/><rect fill="#FEFECE" height="5" style="stroke: #A80036; stroke-width: 1.5;" width="10" x="123.5" y="90.2969"/><text fill="#000000" font-family="sans-serif" font-size="14" lengthAdjust="spacingAndGlyphs" textLength="43" x="138.5" y="86.9951">gradle</text><!--entity FrameworkProperties--><rect fill="#FEFECE" filter="url(#fpphln2cef5cz)" height="36.2969" style="stroke: #A80036; stroke-width: 1.5;" width="167" x="76.5" y="180"/><rect fill="#FEFECE" height="5" style="stroke: #A80036; stroke-width: 1.5;" width="10" x="71.5" y="185"/><rect fill="#FEFECE" height="5" style="stroke: #A80036; stroke-width: 1.5;" width="10" x="71.5" y="206.2969"/><text fill="#000000" font-family="sans-serif" font-size="14" lengthAdjust="spacingAndGlyphs" textLength="147" x="86.5" y="202.9951">FrameworkProperties</text><!--entity dex--><rect fill="#FEFECE" filter="url(#fpphln2cef5cz)" height="36.2969" style="stroke: #A80036; stroke-width: 1.5;" width="45" x="278.5" y="180"/><rect fill="#FEFECE" height="5" style="stroke: #A80036; stroke-width: 1.5;" width="10" x="273.5" y="185"/><rect fill="#FEFECE" height="5" style="stroke: #A80036; stroke-width: 1.5;" width="10" x="273.5" y="206.2969"/><text fill="#000000" font-family="sans-serif" font-size="14" lengthAdjust="spacingAndGlyphs" textLength="25" x="288.5" y="202.9951">dex</text><!--entity getFrameworkProperty--><rect fill="#FEFECE" filter="url(#fpphln2cef5cz)" height="36.2969" style="stroke: #A80036; stroke-width: 1.5;" width="177" x="212.5" y="296"/><rect fill="#FEFECE" height="5" style="stroke: #A80036; stroke-width: 1.5;" width="10" x="207.5" y="301"/><rect fill="#FEFECE" height="5" style="stroke: #A80036; stroke-width: 1.5;" width="10" x="207.5" y="322.2969"/><text fill="#000000" font-family="sans-serif" font-size="14" lengthAdjust="spacingAndGlyphs" textLength="157" x="222.5" y="318.9951">getFrameworkProperty</text><!--link code to gradle--><path d="M93.5391,82 C103.4138,82 113.289,82 123.163,82 " fill="none" id="code-gradle" style="stroke: #A80036; stroke-width: 1.0;"/><polygon fill="#A80036" points="128.327,82,119.327,78,123.327,82,119.327,86,128.327,82" style="stroke: #A80036; stroke-width: 1.0;"/><!--link gradle to FrameworkProperties--><path d="M160,100.314 C160,120.266 160,153.097 160,174.882 " fill="none" id="gradle-FrameworkProperties" style="stroke: #A80036; stroke-width: 1.0;"/><polygon fill="#A80036" points="160,179.896,164,170.896,160,174.896,156,170.896,160,179.896" style="stroke: #A80036; stroke-width: 1.0;"/><!--link FrameworkProperties to dex--><path d="M243.719,198 C253.5,198 263.281,198 273.062,198 " fill="none" id="FrameworkProperties-dex" style="stroke: #A80036; stroke-width: 1.0;"/><polygon fill="#A80036" points="278.177,198,269.177,194,273.177,198,269.177,202,278.177,198" style="stroke: #A80036; stroke-width: 1.0;"/><!--link dex to getFrameworkProperty--><path d="M301,216.314 C301,236.266 301,269.0967 301,290.8822 " fill="none" id="dex-getFrameworkProperty" style="stroke: #A80036; stroke-width: 1.0;"/><polygon fill="#A80036" points="301,295.8964,305,286.8964,301,290.8964,297,286.8964,301,295.8964" style="stroke: #A80036; stroke-width: 1.0;"/><!--
@startuml
node “dev” {
   [code]-> [gradle]	
}

node “atlas compile” {
   [gradle]->[FrameworkProperties]
   [FrameworkProperties]->[dex]
} 

node “runtime”{
   [dex]->[getFrameworkProperty]
}
@enduml

PlantUML version 1.2017.12(Wed Apr 26 16:06:36 UTC 2017)
(GPL source distribution)
Java Runtime: Java(TM) SE Runtime Environment
JVM: Java HotSpot(TM) 64-Bit Server VM
Java Version: 1.7.0_25-b15
Operating System: Linux
Default Encoding: UTF-8
Language: en
Country: US
--></g></svg>